<svg width="40px" height="52px" viewBox="0 0 40 52" version="1.1" xmlns="http://www.w3.org/2000/svg" xmlns:xlink="http://www.w3.org/1999/xlink">
  <title>Logo</title>
  <path d="M 34.903 21.336 C 35.142 19.992 35.27 18.631 35.283 17.266 C 35.283 3.995 20.916 -4.3 9.423 2.336 C 4.088 5.415 0.803 11.107 0.803 17.266 C 0.815 18.631 0.943 19.992 1.183 21.336 C -1.263 26.176 0.185 32.077 4.593 35.236 C 5.342 35.753 6.131 36.211 6.953 36.606 C 9.953 41.426 13.823 45.026 18.043 45.026 C 22.263 45.026 26.133 41.426 29.133 36.606 C 29.952 36.209 30.741 35.751 31.493 35.236 C 35.9 32.077 37.348 26.176 34.903 21.336 Z M 14.673 35.666 C 14.069 35.777 13.456 35.838 12.843 35.846 C 7.312 35.855 2.771 31.474 2.583 25.946 C 2.563 25.35 2.6 24.755 2.693 24.166 C 2.762 23.729 3.244 23.493 3.633 23.706 C 8.347 26.314 12.3 30.105 15.103 34.706 C 15.323 35.089 15.105 35.575 14.673 35.666 Z M 23.243 35.846 C 22.629 35.838 22.016 35.777 21.413 35.666 C 20.942 35.596 20.71 35.056 20.983 34.666 C 23.785 30.065 27.738 26.274 32.453 23.666 C 32.841 23.453 33.323 23.689 33.393 24.126 C 33.48 24.715 33.517 25.311 33.503 25.906 C 33.335 31.449 28.788 35.854 23.243 35.846 Z"/>
</svg>